<?xml version="1.0" encoding="UTF-8"?>
<svg id="Layer_1" xmlns="http://www.w3.org/2000/svg" version="1.1" viewBox="0 0 16 16">
  <!-- Generator: Adobe Illustrator 29.2.1, SVG Export Plug-In . SVG Version: 2.1.0 Build 116)  -->
  <path class="jp-icon3" fill="#616161" d="M12.3,8.9c-.2,0-.4,0-.6,0l-1.6-2.8c.5-.5.8-1.2.8-1.9,0-1.6-1.3-2.9-2.9-2.9s-2.9,1.3-2.9,2.9.3,1.4.8,1.9l-1.6,2.8c-.2,0-.4,0-.6,0-1.6,0-2.9,1.3-2.9,2.9s1.3,2.9,2.9,2.9,2.9-1.3,2.9-2.9-.3-1.4-.8-1.9l1.6-2.8c.2,0,.4,0,.6,0s.4,0,.6,0l1.6,2.8c-.5.5-.8,1.2-.8,1.9,0,1.6,1.3,2.9,2.9,2.9s2.9-1.3,2.9-2.9-1.3-2.9-2.9-2.9ZM3.7,12.9c-.6,0-1.1-.5-1.1-1.1s.5-1.1,1.1-1.1,1.1.5,1.1,1.1-.5,1.1-1.1,1.1ZM6.9,4.3c0-.6.5-1.1,1.1-1.1s1.1.5,1.1,1.1-.5,1.1-1.1,1.1-1.1-.5-1.1-1.1ZM12.3,12.9c-.6,0-1.1-.5-1.1-1.1s.5-1.1,1.1-1.1,1.1.5,1.1,1.1-.5,1.1-1.1,1.1Z"/>
</svg>