<?xml version="1.0" encoding="UTF-8"?>
<svg id="Layer_1" xmlns="http://www.w3.org/2000/svg" version="1.1" viewBox="0 0 16 16">
  <!-- Generator: Adobe Illustrator 29.2.1, SVG Export Plug-In . SVG Version: 2.1.0 Build 116)  -->
  <path class="jp-icon3" fill="#616161" d="M13,10.1c-1.3,0-2.4.8-2.7,2h-1.4V2.1h-3.2C5.4,1,4.3.1,3,.1S.1,1.4.1,3s1.3,2.9,2.9,2.9,2.4-.8,2.7-2h1.4v10h3.2c.4,1.2,1.4,2,2.7,2s2.9-1.3,2.9-2.9-1.3-2.9-2.9-2.9ZM3,4.1c-.6,0-1.1-.5-1.1-1.1s.5-1.1,1.1-1.1,1.1.5,1.1,1.1-.5,1.1-1.1,1.1ZM13,14.1c-.6,0-1.1-.5-1.1-1.1s.5-1.1,1.1-1.1,1.1.5,1.1,1.1-.5,1.1-1.1,1.1Z"/>
</svg>