<svg xmlns="http://www.w3.org/2000/svg" viewBox="0 0 18.4 16.2">
  <!-- Generator: Adobe Illustrator 29.2.1, SVG Export Plug-In . SVG Version: 2.1.0 Build 116)  -->
  <path class="jp-icon3" fill="#616161" d="M9.2,0C5,0,1.5,3.4,1.1,7.5H0s1.9,3.2,1.9,3.2l1.9-3.2h-1.1c.3-3.4,3.1-6,6.6-6s4.8,1.4,5.9,3.6l1.3-.7C15.1,1.7,12.3,0,9.2,0Z"/>
  <path class="jp-icon3" fill="#616161" d="M18.4,8.7l-1.9-3.2-1.9,3.2h1.1c-.3,3.4-3.1,6-6.6,6s-4.8-1.4-5.9-3.6l-1.3.7c1.4,2.7,4.2,4.5,7.2,4.5s7.8-3.3,8.1-7.5h1.1Z"/>
  <rect class="jp-icon3" fill="#616161" x="6" y="4.8" width="6.5" height="6.5" rx="1" ry="1"/>
</svg>