<?xml version="1.0" encoding="UTF-8"?>
<svg id="Layer_1" xmlns="http://www.w3.org/2000/svg" version="1.1" viewBox="0 0 487.5 487.5">
  <!-- Generator: Adobe Illustrator 29.2.1, SVG Export Plug-In . SVG Version: 2.1.0 Build 116)  -->
  <path class="jp-icon3" fill="#616161" d="M265,487.5c-22.8,0-45.6-8.7-62.9-26L26,285.5C9.2,268.7,0,246.3,0,222.5V73C0,32.7,32.7,0,73,0h149.4c23.8.1,46.2,9.3,63,26.1l176,176c34.7,34.7,34.7,91.2,0,125.9l-133.5,133.5c-17.3,17.3-40.1,26-62.9,26ZM73,50c-12.7,0-23,10.3-23,23v149.5c0,10.5,4,20.3,11.4,27.6l176,176c15.2,15.2,39.9,15.2,55.1,0l133.5-133.5c15.2-15.2,15.2-39.9,0-55.1L250,61.5c-7.3-7.3-17.1-11.4-27.6-11.4H73Z"/>
  <path class="jp-icon3" fill="#616161" d="M137,194c-31.4,0-57-25.6-57-57s25.6-57,57-57,57,25.6,57,57-25.6,57-57,57ZM137,130c-3.9,0-7,3.1-7,7s3.1,7,7,7,7-3.1,7-7-3.1-7-7-7Z"/>
  <rect class="jp-icon3" fill="#616161" x="-39.3" y="216.2" width="571.3" height="50" transform="translate(-98.4 244.8) rotate(-45)"/>
</svg>